<?xml version="1.0" encoding="UTF-8"?><svg xmlns="http://www.w3.org/2000/svg" viewBox="0 0 293.1 29.7"><defs><style>.d{fill:none;stroke:#1d1d1b;stroke-miterlimit:10;stroke-width:.75px;}.e{fill:#1d1d1b;}</style></defs><g id="a"/><g id="b"><g id="c"><g><path class="e" d="M5.21,8.52v3.86h-1.08V3.1h2.55c1.14,0,1.98,.22,2.52,.65,.54,.44,.82,1.09,.82,1.97,0,1.23-.62,2.06-1.87,2.49l2.52,4.17h-1.28l-2.25-3.86h-1.94Zm0-.93h1.48c.76,0,1.32-.15,1.68-.45,.36-.3,.53-.76,.53-1.36s-.18-1.06-.54-1.33c-.36-.27-.94-.41-1.74-.41h-1.4v3.55Z"/><path class="e" d="M14.83,12.51c-1.03,0-1.84-.31-2.43-.94-.59-.63-.89-1.5-.89-2.61s.28-2.01,.83-2.67c.55-.66,1.29-.99,2.22-.99,.87,0,1.56,.29,2.07,.86,.51,.57,.76,1.33,.76,2.27v.67h-4.79c.02,.82,.23,1.44,.62,1.86,.39,.42,.94,.63,1.65,.63,.75,0,1.49-.16,2.22-.47v.94c-.37,.16-.72,.28-1.06,.35-.33,.07-.73,.1-1.2,.1Zm-.29-6.33c-.56,0-1,.18-1.34,.55-.33,.36-.53,.87-.59,1.51h3.64c0-.66-.15-1.17-.44-1.53-.3-.35-.72-.53-1.27-.53Z"/><path class="e" d="M23.69,10.48c0,.65-.24,1.15-.72,1.5s-1.16,.53-2.03,.53c-.92,0-1.64-.15-2.16-.44v-.98c.33,.17,.69,.3,1.08,.4,.38,.1,.75,.15,1.11,.15,.55,0,.97-.09,1.27-.26,.3-.18,.44-.44,.44-.8,0-.27-.12-.5-.35-.69-.24-.19-.69-.42-1.37-.68-.65-.24-1.11-.45-1.38-.63-.27-.18-.48-.38-.61-.61-.13-.23-.2-.5-.2-.82,0-.57,.23-1.01,.69-1.34,.46-.33,1.09-.49,1.9-.49,.75,0,1.48,.15,2.2,.46l-.37,.86c-.7-.29-1.33-.43-1.9-.43-.5,0-.88,.08-1.13,.23s-.38,.37-.38,.65c0,.19,.05,.34,.14,.48,.1,.13,.25,.26,.46,.37s.62,.29,1.22,.51c.83,.3,1.38,.6,1.67,.91,.29,.3,.44,.69,.44,1.15Z"/><path class="e" d="M28.54,12.51c-.45,0-.87-.08-1.24-.25-.37-.17-.69-.42-.94-.77h-.08c.05,.41,.08,.79,.08,1.16v2.86h-1.05V5.42h.86l.15,.95h.05c.27-.38,.59-.66,.95-.83s.77-.25,1.24-.25c.92,0,1.63,.32,2.14,.95,.5,.63,.75,1.52,.75,2.65s-.25,2.03-.77,2.66c-.51,.63-1.22,.95-2.12,.95Zm-.15-6.32c-.71,0-1.23,.2-1.54,.59s-.48,1.02-.49,1.88v.23c0,.98,.16,1.68,.49,2.1,.33,.42,.85,.63,1.57,.63,.6,0,1.07-.24,1.41-.73,.34-.49,.51-1.16,.51-2.01s-.17-1.53-.51-2c-.34-.46-.82-.69-1.44-.69Z"/><path class="e" d="M39.28,8.89c0,1.13-.29,2.02-.86,2.66-.57,.64-1.36,.96-2.37,.96-.62,0-1.17-.15-1.66-.44s-.85-.71-1.12-1.26-.39-1.19-.39-1.92c0-1.13,.28-2.02,.85-2.65,.57-.63,1.35-.95,2.36-.95s1.75,.32,2.32,.97c.57,.65,.86,1.52,.86,2.63Zm-5.3,0c0,.89,.18,1.57,.53,2.03s.88,.7,1.57,.7,1.21-.23,1.57-.69c.36-.46,.54-1.14,.54-2.03s-.18-1.56-.54-2.02c-.36-.46-.89-.69-1.58-.69s-1.21,.23-1.56,.68-.53,1.13-.53,2.02Z"/><path class="e" d="M45.83,12.38V7.88c0-.57-.13-.99-.39-1.27s-.66-.42-1.21-.42c-.73,0-1.26,.2-1.6,.59s-.51,1.04-.51,1.95v3.65h-1.05V5.42h.86l.17,.95h.05c.22-.34,.52-.61,.91-.8,.39-.19,.82-.28,1.3-.28,.84,0,1.47,.2,1.89,.61,.42,.4,.63,1.05,.63,1.94v4.54h-1.05Z"/><path class="e" d="M53.44,10.48c0,.65-.24,1.15-.72,1.5s-1.16,.53-2.03,.53c-.92,0-1.64-.15-2.16-.44v-.98c.33,.17,.69,.3,1.08,.4,.38,.1,.75,.15,1.11,.15,.55,0,.97-.09,1.27-.26,.3-.18,.44-.44,.44-.8,0-.27-.12-.5-.35-.69-.24-.19-.69-.42-1.37-.68-.65-.24-1.11-.45-1.38-.63-.27-.18-.48-.38-.61-.61-.13-.23-.2-.5-.2-.82,0-.57,.23-1.01,.69-1.34,.46-.33,1.09-.49,1.9-.49,.75,0,1.48,.15,2.2,.46l-.37,.86c-.7-.29-1.33-.43-1.9-.43-.5,0-.88,.08-1.13,.23s-.38,.37-.38,.65c0,.19,.05,.34,.14,.48,.1,.13,.25,.26,.46,.37s.62,.29,1.22,.51c.83,.3,1.38,.6,1.67,.91,.29,.3,.44,.69,.44,1.15Z"/><path class="e" d="M54.95,3.54c0-.24,.06-.42,.18-.53,.12-.11,.27-.17,.44-.17s.32,.06,.44,.17,.18,.29,.18,.53-.06,.41-.18,.53c-.12,.12-.27,.17-.44,.17-.18,0-.33-.06-.44-.17-.12-.12-.18-.29-.18-.53Zm1.14,8.84h-1.05V5.42h1.05v6.96Z"/><path class="e" d="M61.46,5.31c.91,0,1.62,.31,2.13,.94,.51,.62,.76,1.51,.76,2.65s-.25,2.03-.77,2.66c-.51,.63-1.22,.95-2.12,.95-.45,0-.87-.08-1.24-.25-.37-.17-.69-.42-.94-.77h-.08l-.22,.9h-.76V2.5h1.05v2.4c0,.54-.02,1.02-.05,1.45h.05c.49-.69,1.22-1.04,2.18-1.04Zm-.15,.88c-.72,0-1.24,.21-1.56,.62-.32,.41-.48,1.11-.48,2.09s.16,1.68,.49,2.1c.33,.42,.85,.63,1.57,.63,.65,0,1.13-.24,1.45-.71,.32-.47,.48-1.15,.48-2.03s-.16-1.58-.48-2.02-.81-.67-1.47-.67Z"/><path class="e" d="M67.21,12.38h-1.05V2.5h1.05V12.38Z"/><path class="e" d="M72.34,12.51c-1.03,0-1.84-.31-2.43-.94-.59-.63-.89-1.5-.89-2.61s.28-2.01,.83-2.67c.55-.66,1.29-.99,2.22-.99,.87,0,1.56,.29,2.07,.86,.51,.57,.76,1.33,.76,2.27v.67h-4.79c.02,.82,.23,1.44,.62,1.86,.39,.42,.94,.63,1.65,.63,.75,0,1.49-.16,2.22-.47v.94c-.37,.16-.72,.28-1.06,.35-.33,.07-.73,.1-1.2,.1Zm-.29-6.33c-.56,0-1,.18-1.34,.55-.33,.36-.53,.87-.59,1.51h3.64c0-.66-.15-1.17-.44-1.53-.3-.35-.72-.53-1.27-.53Z"/><path class="e" d="M80.23,12.38V3.1h1.08V12.38h-1.08Z"/><path class="e" d="M86.81,12.38h-1.08V4.06h-2.94v-.96h6.96v.96h-2.94V12.38Z"/><path class="e" d="M3.17,19.5c.31,0,.59,.03,.83,.08l-.15,.98c-.29-.06-.54-.1-.76-.1-.56,0-1.04,.23-1.44,.69-.4,.46-.6,1.03-.6,1.71v3.73H0v-6.96H.87l.12,1.29h.05c.26-.45,.57-.8,.93-1.05s.76-.37,1.2-.37Z"/><path class="e" d="M8.13,26.71c-1.03,0-1.84-.31-2.43-.94-.59-.63-.89-1.5-.89-2.61s.28-2.01,.83-2.67c.55-.66,1.29-.99,2.22-.99,.87,0,1.56,.29,2.07,.86,.51,.57,.76,1.33,.76,2.27v.67H5.89c.02,.82,.23,1.44,.62,1.86,.39,.42,.94,.63,1.65,.63,.75,0,1.49-.16,2.22-.47v.94c-.37,.16-.72,.28-1.06,.35-.33,.07-.73,.1-1.2,.1Zm-.29-6.33c-.56,0-1,.18-1.34,.55-.33,.36-.53,.87-.59,1.51h3.64c0-.66-.15-1.17-.44-1.53-.3-.35-.72-.53-1.27-.53Z"/><path class="e" d="M16.98,24.68c0,.65-.24,1.15-.72,1.5s-1.16,.53-2.03,.53c-.92,0-1.64-.15-2.16-.44v-.98c.33,.17,.69,.3,1.08,.4,.38,.1,.75,.15,1.11,.15,.55,0,.97-.09,1.27-.26,.3-.18,.44-.44,.44-.8,0-.27-.12-.5-.35-.69-.24-.19-.69-.42-1.37-.68-.65-.24-1.11-.45-1.38-.63-.27-.18-.48-.38-.61-.61-.13-.23-.2-.5-.2-.82,0-.57,.23-1.01,.69-1.34,.46-.33,1.09-.49,1.9-.49,.75,0,1.48,.15,2.2,.46l-.37,.86c-.7-.29-1.33-.43-1.9-.43-.5,0-.88,.08-1.13,.23s-.38,.37-.38,.65c0,.19,.05,.34,.14,.48,.1,.13,.25,.26,.46,.37s.62,.29,1.22,.51c.83,.3,1.38,.6,1.67,.91,.29,.3,.44,.69,.44,1.15Z"/><path class="e" d="M21.65,26.71c-1.03,0-1.84-.31-2.43-.94-.59-.63-.89-1.5-.89-2.61s.28-2.01,.83-2.67c.55-.66,1.29-.99,2.22-.99,.87,0,1.56,.29,2.07,.86,.51,.57,.76,1.33,.76,2.27v.67h-4.79c.02,.82,.23,1.44,.62,1.86,.39,.42,.94,.63,1.65,.63,.75,0,1.49-.16,2.22-.47v.94c-.37,.16-.72,.28-1.06,.35-.33,.07-.73,.1-1.2,.1Zm-.29-6.33c-.56,0-1,.18-1.34,.55-.33,.36-.53,.87-.59,1.51h3.64c0-.66-.15-1.17-.44-1.53-.3-.35-.72-.53-1.27-.53Z"/><path class="e" d="M30.2,26.58l-.21-.99h-.05c-.35,.44-.69,.73-1.04,.89-.35,.15-.78,.23-1.29,.23-.69,0-1.23-.18-1.62-.53-.39-.36-.59-.86-.59-1.52,0-1.4,1.12-2.14,3.37-2.21l1.18-.04v-.43c0-.55-.12-.95-.35-1.21-.24-.26-.61-.39-1.13-.39-.58,0-1.24,.18-1.97,.53l-.32-.81c.34-.19,.72-.33,1.13-.44,.41-.11,.82-.16,1.23-.16,.83,0,1.44,.18,1.84,.55,.4,.37,.6,.96,.6,1.77v4.75h-.78Zm-2.38-.74c.66,0,1.17-.18,1.55-.54,.38-.36,.56-.86,.56-1.51v-.63l-1.05,.04c-.84,.03-1.44,.16-1.81,.39-.37,.23-.56,.59-.56,1.08,0,.38,.12,.67,.35,.87,.23,.2,.55,.3,.97,.3Z"/><path class="e" d="M36.26,19.5c.31,0,.59,.03,.83,.08l-.15,.98c-.29-.06-.54-.1-.76-.1-.56,0-1.04,.23-1.44,.69-.4,.46-.6,1.03-.6,1.71v3.73h-1.05v-6.96h.87l.12,1.29h.05c.26-.45,.57-.8,.93-1.05s.76-.37,1.2-.37Z"/><path class="e" d="M41.06,26.71c-1.01,0-1.79-.31-2.34-.93-.55-.62-.83-1.5-.83-2.63s.28-2.06,.84-2.7c.56-.63,1.36-.95,2.4-.95,.33,0,.67,.04,1,.11s.6,.16,.79,.25l-.32,.9c-.23-.09-.49-.17-.76-.23-.27-.06-.52-.09-.73-.09-1.41,0-2.12,.9-2.12,2.7,0,.85,.17,1.51,.52,1.97,.35,.46,.86,.69,1.53,.69,.58,0,1.17-.12,1.78-.37v.93c-.47,.24-1.05,.36-1.76,.36Z"/><path class="e" d="M49.18,26.58v-4.5c0-.57-.13-.99-.39-1.27s-.66-.42-1.21-.42c-.73,0-1.27,.2-1.6,.6-.34,.4-.5,1.05-.5,1.96v3.64h-1.05v-9.88h1.05v2.99c0,.36-.02,.66-.05,.9h.06c.21-.33,.5-.6,.89-.79,.38-.19,.82-.29,1.31-.29,.85,0,1.49,.2,1.91,.61,.42,.4,.64,1.05,.64,1.93v4.54h-1.05Z"/><path class="e" d="M61.47,19.62v.67l-1.29,.15c.12,.15,.22,.34,.32,.58,.09,.24,.14,.51,.14,.81,0,.68-.23,1.23-.7,1.63s-1.1,.61-1.92,.61c-.21,0-.4-.02-.58-.05-.45,.24-.67,.54-.67,.9,0,.19,.08,.33,.23,.42,.16,.09,.43,.14,.81,.14h1.23c.75,0,1.33,.16,1.74,.48,.4,.32,.61,.78,.61,1.38,0,.77-.31,1.36-.93,1.76-.62,.4-1.52,.61-2.7,.61-.91,0-1.61-.17-2.1-.51-.49-.34-.74-.82-.74-1.43,0-.42,.14-.79,.41-1.1s.65-.52,1.14-.63c-.18-.08-.33-.21-.45-.37-.12-.17-.18-.37-.18-.59,0-.25,.07-.48,.2-.67s.35-.37,.64-.55c-.36-.15-.65-.4-.88-.76-.23-.36-.34-.76-.34-1.22,0-.76,.23-1.35,.69-1.76,.46-.41,1.1-.62,1.94-.62,.36,0,.69,.04,.98,.13h2.41Zm-5.55,8.12c0,.38,.16,.66,.48,.86s.77,.29,1.36,.29c.88,0,1.54-.13,1.96-.4,.43-.26,.64-.62,.64-1.08,0-.38-.12-.64-.35-.78-.23-.15-.67-.22-1.31-.22h-1.26c-.48,0-.85,.11-1.12,.34s-.4,.56-.4,.98Zm.57-5.9c0,.49,.14,.85,.41,1.1s.66,.37,1.15,.37c1.03,0,1.54-.5,1.54-1.5s-.52-1.57-1.56-1.57c-.5,0-.88,.13-1.14,.4s-.4,.66-.4,1.19Z"/><path class="e" d="M66.09,19.5c.31,0,.59,.03,.83,.08l-.15,.98c-.29-.06-.54-.1-.76-.1-.56,0-1.04,.23-1.44,.69-.4,.46-.6,1.03-.6,1.71v3.73h-1.05v-6.96h.87l.12,1.29h.05c.26-.45,.57-.8,.93-1.05s.76-.37,1.2-.37Z"/><path class="e" d="M74.12,23.09c0,1.13-.29,2.02-.86,2.66-.57,.64-1.36,.96-2.37,.96-.62,0-1.17-.15-1.66-.44s-.85-.71-1.12-1.26-.39-1.19-.39-1.92c0-1.13,.28-2.02,.85-2.65,.57-.63,1.35-.95,2.36-.95s1.75,.32,2.32,.97c.57,.65,.86,1.52,.86,2.63Zm-5.3,0c0,.89,.18,1.57,.53,2.03s.88,.7,1.57,.7,1.21-.23,1.57-.69c.36-.46,.54-1.14,.54-2.03s-.18-1.56-.54-2.02c-.36-.46-.89-.69-1.58-.69s-1.21,.23-1.56,.68-.53,1.13-.53,2.02Z"/><path class="e" d="M76.91,19.62v4.51c0,.57,.13,.99,.39,1.27s.66,.42,1.21,.42c.73,0,1.26-.2,1.6-.6,.34-.4,.5-1.05,.5-1.95v-3.66h1.05v6.96h-.87l-.15-.93h-.06c-.22,.34-.52,.6-.9,.79-.38,.18-.82,.27-1.31,.27-.85,0-1.48-.2-1.9-.6-.42-.4-.63-1.05-.63-1.93v-4.55h1.07Z"/><path class="e" d="M87.04,26.71c-.45,0-.87-.08-1.24-.25-.37-.17-.69-.42-.94-.77h-.08c.05,.41,.08,.79,.08,1.16v2.86h-1.05v-10.08h.86l.15,.95h.05c.27-.38,.59-.66,.95-.83s.77-.25,1.24-.25c.92,0,1.63,.32,2.14,.95,.5,.63,.75,1.52,.75,2.65s-.25,2.03-.77,2.66c-.51,.63-1.22,.95-2.12,.95Zm-.15-6.32c-.71,0-1.23,.2-1.54,.59s-.48,1.02-.49,1.88v.23c0,.98,.16,1.68,.49,2.1,.33,.42,.85,.63,1.57,.63,.6,0,1.07-.24,1.41-.73,.34-.49,.51-1.16,.51-2.01s-.17-1.53-.51-2c-.34-.46-.82-.69-1.44-.69Z"/></g><g><g><path class="e" d="M127.94,6.98c4.1,0,7.93,1.1,11.23,3.03l3.52-6.02c-4.33-2.54-9.37-3.99-14.75-3.99s-10.41,1.45-14.74,3.99l3.52,6.02c3.3-1.93,7.14-3.03,11.22-3.03Z"/><path class="e" d="M131.2,10.29c-1.43-.01-5.77-.1-11.35,2.48-.71,.33-1.21,.61-1.33,.43-.24-.38,1.53-1.89,3.43-2.99,.69-.41,1.08-.77,.93-1.07-.23-.44-1.59-.53-5.4,1.41-1.95,1.09-3.71,2.48-5.22,4.1l.62,.59c.61-.65,1.27-1.25,1.94-1.83,.45-.39,2.53-1.94,2.71-1.47,.07,.19-.06,.46-.8,1.47-.64,.89-1.06,1.72-.76,1.98,.3,.26,.67,.11,1.54-.37,.64-.36,2.68-1.44,5.9-2.4,3.22-.96,4-.59,4.08-.36,.1,.32-1.38,.84-2.26,1.27-.73,.37-3.31,1.89-4.71,3.02,0,0,1.36,2.33,1.36,2.33,1.44-.85,6.95-2.24,7.53-1.24,.64,1.1-5.21,5.22-5.21,5.22l3.73,6.41s8.49-9.75,7.14-11.89c-1.36-2.13-6.47-1.73-8.49-1.54-.55,.05-1.2,.17-1.34-.1-.15-.3,.02-1.52,6.84-3.13,1.52-.36,2.11-.54,2.02-1.21-.07-.57-1.47-1.07-2.91-1.08Z"/></g><g><path class="e" d="M154.2,11.98c.59-.01,.99-.01,.99-.4,0-.25-.21-.77-.45-1.37l-.34-.89h-3.38l-.36,.85c-.18,.45-.34,.92-.34,1.26,0,.36,.27,.54,.71,.55h.36v.38h-2.85v-.38c.67,0,.93-.34,1.36-1.39l2.58-6.2c.21-.5,.41-1,.57-1.57h1.18c.17,.66,.37,1.27,.61,1.88l2.44,6.33c.16,.42,.37,.95,.88,.95h.28v.38h-4.23v-.38Zm-1.43-6.9l-1.57,3.78h3.02l-1.45-3.78Z"/><path class="e" d="M158.56,11.98h.45c.4,0,.53-.17,.53-.9V7.03c0-.73-.13-.9-.53-.9h-.45v-.38h1.39c.49,0,.96-.09,1.41-.21v1.18h.03c.53-.75,1.16-1.18,2.14-1.18,.9,0,1.56,.33,1.81,1.18,.57-.82,1.11-1.18,2.21-1.18,1.3,0,1.93,.78,1.93,1.88v3.67c0,.73,.13,.9,.53,.9h.29v.38h-3.54v-.38h.29c.4,0,.53-.17,.53-.9v-3.33c0-.65,0-1.4-.85-1.4-1.27,0-1.27,1.45-1.27,2.27v2.46c0,.73,.13,.9,.53,.9h.29v.38h-3.54v-.38h.29c.4,0,.53-.17,.53-.9v-3.33c0-.65,0-1.4-.85-1.4-1.27,0-1.27,1.45-1.27,2.27v2.46c0,.73,.13,.9,.53,.9h.29v.38h-3.7v-.38Z"/><path class="e" d="M171.08,10.2h.42c.26,1.12,.88,1.92,2.13,1.92,.68,0,1.32-.4,1.32-1.07,0-.85-.66-1.03-1.93-1.32-.98-.23-1.94-.55-1.94-1.92,0-1.57,1.15-2.27,2.6-2.27,.6,0,1.02,.21,1.45,.21,.36,0,.55-.11,.71-.21h.08v2.13h-.42c-.13-.87-.85-1.67-1.77-1.67-.65,0-1.31,.24-1.31,1.04,0,.67,.34,.77,1.88,1.12,1.17,.26,2.07,.63,2.07,2.17s-1.31,2.25-2.7,2.25c-.62,0-1.29-.21-1.86-.21-.26,0-.53,.12-.66,.21h-.08v-2.38Z"/><path class="e" d="M181.43,6.13h-1.39v4.26c0,.79,0,1.37,.61,1.37,.5,0,.58-.49,.59-.95v-.42h.5v.29c0,1.32-.53,1.9-1.73,1.9-1.36,0-1.88-.85-1.88-1.73V6.13h-.93v-.38c1.31-.08,2.14-1.35,2.43-2.54h.4v2.54h1.39v.38Z"/><path class="e" d="M184.64,9.08v.33c0,1.32,.12,2.71,1.63,2.71,1.15,0,1.82-.98,1.85-2.02h.58c-.17,1.63-1.2,2.48-2.85,2.48-2.1,0-3.26-1.47-3.26-3.53s1.16-3.51,3.26-3.51c2.21,0,2.99,1.49,2.99,3.54h-4.19Zm2.13-.38c0-1.43,0-2.7-.98-2.7-1.1,0-1.15,1.4-1.15,2.7h2.13Z"/><path class="e" d="M192.53,11.08c0,.73,.13,.9,.53,.9h.61v.38h-4.02v-.38h.45c.4,0,.53-.17,.53-.9V7.03c0-.73-.13-.9-.53-.9h-.45v-.38h1.39c.49,0,.96-.09,1.41-.21v1.49h.05c.29-.67,.89-1.4,1.77-1.4,.62,0,1.32,.27,1.32,1.11,0,.62-.41,.95-1.11,.95-.32,0-.87-.16-.87-.85,0-.25,0-.32-.16-.32-.37,0-.93,.86-.93,2.27v2.29Z"/><path class="e" d="M200.84,11.4h-.03c-.3,.85-1.06,1.18-1.98,1.18-1.85,0-2.54-1.9-2.54-3.5,0-1.69,.63-3.54,2.56-3.54,.85,0,1.47,.34,1.88,1.08h.03V3.79c0-.65-.03-.89-.53-.89h-.41v-.38h2.84V11.07c0,.79,.18,.91,.53,.91h.42v.38h-2.77v-.96Zm-1.47,.52c1.33,0,1.35-2.13,1.35-3s-.11-2.72-1.36-2.72c-1,0-1,2.04-1,2.67s0,3.05,1.02,3.05Z"/><path class="e" d="M211.45,10.53c0,.89-.01,2.05-1.64,2.05-.53,0-1.21-.28-1.44-.89-.38,.66-1.2,.89-1.93,.89-1.14,0-2.08-.63-2.08-1.85,0-1.7,1.9-2.29,3.34-2.29,.2,0,.38,0,.58,.01v-1.39c0-.58-.19-1.07-.89-1.07-.29,0-.9,.05-.9,.4,0,.15,.29,.38,.29,.75,0,.55-.47,.88-.99,.88-.6,0-.99-.38-.99-.98,0-1.24,1.73-1.52,2.67-1.52,1.27,0,2.71,.33,2.71,1.86v3.94c0,.36,.12,.5,.33,.5,.43,0,.43-.7,.43-1.31h.5Zm-3.16-1.65c-.17-.04-.28-.05-.4-.05-1.07,0-1.54,.71-1.54,1.89,0,.59,.24,1.2,.91,1.2,.34,0,1.03-.23,1.03-1.36v-1.68Z"/><path class="e" d="M211.93,11.98h.45c.4,0,.53-.17,.53-.9V7.03c0-.73-.13-.9-.53-.9h-.45v-.38h1.39c.49,0,.96-.09,1.41-.21v1.18h.03c.53-.75,1.16-1.18,2.14-1.18,.9,0,1.56,.33,1.81,1.18,.57-.82,1.11-1.18,2.21-1.18,1.29,0,1.93,.78,1.93,1.88v3.67c0,.73,.13,.9,.53,.9h.29v.38h-3.54v-.38h.29c.4,0,.53-.17,.53-.9v-3.33c0-.65,0-1.4-.85-1.4-1.27,0-1.27,1.45-1.27,2.27v2.46c0,.73,.14,.9,.53,.9h.29v.38h-3.54v-.38h.29c.4,0,.53-.17,.53-.9v-3.33c0-.65,0-1.4-.84-1.4-1.27,0-1.27,1.45-1.27,2.27v2.46c0,.73,.13,.9,.53,.9h.29v.38h-3.7v-.38Z"/><path class="e" d="M237.33,3.34h-.34c-.65,0-.66,.36-.66,2.05v3.96c0,1.94-1.24,3.22-3.36,3.22-2.44,0-3.73-1.32-3.73-3.28v-3.91c0-1.69-.01-2.05-.66-2.05h-.34v-.38h4.07v.38h-.34c-.65,0-.66,.36-.66,2.05v4.19c0,1.78,.98,2.42,2.07,2.42,1.26,0,2.37-.91,2.37-2.84v-3.77c0-1.69-.01-2.05-.66-2.05h-.34v-.38h2.59v.38Z"/><path class="e" d="M237.83,11.98h.45c.4,0,.53-.17,.53-.9V7.03c0-.73-.13-.9-.53-.9h-.45v-.38h1.39c.49,0,.97-.09,1.41-.21v1.18h.03c.53-.75,1.16-1.18,2.14-1.18,1.29,0,1.93,.78,1.93,1.88v3.67c0,.73,.13,.9,.53,.9h.29v.38h-3.54v-.38h.29c.4,0,.53-.17,.53-.9v-3.33c0-.65,0-1.4-.85-1.4-1.27,0-1.27,1.45-1.27,2.27v2.46c0,.73,.13,.9,.53,.9h.29v.38h-3.7v-.38Z"/><path class="e" d="M246.07,11.98h.45c.4,0,.53-.17,.53-.9V7.03c0-.73-.13-.9-.53-.9h-.45v-.38h1.39c.53,0,1.15-.07,1.56-.21-.09,1.04-.07,2.06-.07,3.08v2.47c0,.73,.13,.9,.53,.9h.45v.38h-3.86v-.38Zm1.93-9.46c.61,0,1.11,.5,1.11,1.11s-.5,1.11-1.11,1.11-1.11-.5-1.11-1.11,.5-1.11,1.11-1.11Z"/><path class="e" d="M257.07,6.13c-.49,0-.63,.41-.85,.91l-1.61,3.9c-.2,.49-.38,.99-.54,1.51h-.88c-.12-.34-.24-.71-.37-1.04l-1.76-4.4c-.22-.57-.26-.87-.65-.87h-.23v-.38h3.62v.38h-.45c-.23,0-.45,.05-.45,.29,0,.06,.04,.22,.12,.45l1.29,3.37h.03l1.31-3.3c.07-.19,.11-.33,.11-.45,0-.22-.23-.36-.46-.36h-.32v-.38h2.09v.38Z"/><path class="e" d="M259.41,9.08v.33c0,1.32,.12,2.71,1.63,2.71,1.15,0,1.82-.98,1.85-2.02h.58c-.17,1.63-1.2,2.48-2.85,2.48-2.1,0-3.26-1.47-3.26-3.53s1.16-3.51,3.26-3.51c2.21,0,2.99,1.49,2.99,3.54h-4.19Zm2.13-.38c0-1.43,0-2.7-.98-2.7-1.1,0-1.15,1.4-1.15,2.7h2.13Z"/><path class="e" d="M267.2,11.08c0,.73,.13,.9,.53,.9h.61v.38h-4.02v-.38h.45c.4,0,.53-.17,.53-.9V7.03c0-.73-.13-.9-.53-.9h-.45v-.38h1.39c.49,0,.96-.09,1.41-.21v1.49h.05c.29-.67,.89-1.4,1.77-1.4,.62,0,1.32,.27,1.32,1.11,0,.62-.41,.95-1.11,.95-.32,0-.87-.16-.87-.85,0-.25,0-.32-.16-.32-.37,0-.93,.86-.93,2.27v2.29Z"/><path class="e" d="M270.95,10.2h.42c.26,1.12,.88,1.92,2.13,1.92,.67,0,1.32-.4,1.32-1.07,0-.85-.66-1.03-1.93-1.32-.98-.23-1.94-.55-1.94-1.92,0-1.57,1.15-2.27,2.6-2.27,.59,0,1.02,.21,1.45,.21,.36,0,.55-.11,.71-.21h.08v2.13h-.42c-.13-.87-.85-1.67-1.77-1.67-.65,0-1.31,.24-1.31,1.04,0,.67,.34,.77,1.88,1.12,1.18,.26,2.08,.63,2.08,2.17s-1.31,2.25-2.7,2.25c-.62,0-1.29-.21-1.86-.21-.27,0-.53,.12-.66,.21h-.08v-2.38Z"/><path class="e" d="M276.94,11.98h.45c.4,0,.53-.17,.53-.9V7.03c0-.73-.13-.9-.53-.9h-.45v-.38h1.39c.53,0,1.15-.07,1.56-.21-.09,1.04-.07,2.06-.07,3.08v2.47c0,.73,.13,.9,.53,.9h.45v.38h-3.86v-.38Zm1.93-9.46c.61,0,1.11,.5,1.11,1.11s-.5,1.11-1.11,1.11-1.11-.5-1.11-1.11,.5-1.11,1.11-1.11Z"/><path class="e" d="M285.48,6.13h-1.39v4.26c0,.79,0,1.37,.61,1.37,.5,0,.58-.49,.6-.95v-.42h.5v.29c0,1.32-.53,1.9-1.73,1.9-1.36,0-1.88-.85-1.88-1.73V6.13h-.93v-.38c1.31-.08,2.14-1.35,2.43-2.54h.4v2.54h1.39v.38Z"/><path class="e" d="M293.1,6.13c-.49,0-.65,.41-.85,.91l-2.6,6.57c-.47,1.19-.84,1.84-2.03,1.84-.65,0-1.29-.52-1.29-1.19,0-.58,.34-.95,.9-.95s.85,.38,.85,.78c0,.32-.21,.48-.21,.66,0,.13,.11,.24,.24,.24,.37,0,.75-.67,1.03-1.45l.32-.88-2.15-5.52c-.13-.33-.32-.99-.71-.99h-.29v-.38h3.62v.38h-.24c-.28,0-.59,.01-.59,.33,0,.05,.03,.16,.08,.32l1.28,3.38h.03l1.18-3.12c.08-.22,.12-.4,.12-.49,0-.36-.2-.42-.44-.42h-.33v-.38h2.12v.38Z"/><path class="e" d="M151.79,19.72c2.1,0,3.26,1.47,3.26,3.51s-1.16,3.53-3.26,3.53-3.26-1.47-3.26-3.53,1.16-3.51,3.26-3.51Zm0,6.58c.94,0,1.28-.78,1.28-3.07,0-2.62-.58-3.05-1.28-3.05s-1.28,.44-1.28,3.05c0,2.29,.34,3.07,1.28,3.07Z"/><path class="e" d="M156.82,20.31h-.98v-.38h.98v-.61c0-1.72,.82-2.83,2.62-2.83,.87,0,2.05,.34,2.05,1.4,0,.58-.34,.95-.91,.95-.52,0-.91-.28-.91-.82s.4-.61,.4-.87c0-.2-.28-.28-.45-.28-.96-.05-.89,1.16-.89,1.85v1.2h1.26v.38h-1.26v4.96c0,.73,.13,.9,.53,.9h.73v.38h-4.14v-.38h.45c.4,0,.53-.17,.53-.9v-4.96Z"/><path class="e" d="M169.83,26.17c.59-.01,.99-.01,.99-.4,0-.25-.21-.77-.45-1.37l-.34-.89h-3.38l-.36,.85c-.19,.45-.34,.93-.34,1.26,0,.36,.26,.54,.71,.55h.36v.38h-2.85v-.38c.67,0,.92-.34,1.36-1.39l2.58-6.2c.21-.5,.41-1.01,.57-1.57h1.18c.17,.66,.37,1.27,.61,1.88l2.44,6.33c.16,.42,.37,.95,.89,.95h.28v.38h-4.23v-.38Zm-1.43-6.9l-1.57,3.78h3.03l-1.45-3.78Z"/><path class="e" d="M174.16,29.03h.45c.42,0,.5-.42,.5-1.08v-5.76c0-1.4,.05-1.88-.59-1.88h-.33v-.38h1.15c.57,0,1.14-.09,1.6-.21v1.23h.03c.37-.87,1.12-1.23,1.96-1.23,1.93,0,2.56,1.85,2.56,3.54,0,1.6-.69,3.5-2.54,3.5-.82,0-1.6-.37-1.9-1.06h-.03v1.89c0,1.12,0,1.44,.54,1.44h.42v.38h-3.82v-.38Zm4.24-2.93c1.02,0,1.02-2.41,1.02-3.05s0-2.67-1-2.67c-1.26,0-1.36,1.82-1.36,2.72s.01,3,1.35,3Z"/><path class="e" d="M182.24,29.03h.45c.42,0,.5-.42,.5-1.08v-5.76c0-1.4,.05-1.88-.59-1.88h-.33v-.38h1.15c.57,0,1.14-.09,1.6-.21v1.23h.03c.37-.87,1.12-1.23,1.95-1.23,1.93,0,2.56,1.85,2.56,3.54,0,1.6-.69,3.5-2.54,3.5-.82,0-1.6-.37-1.9-1.06h-.03v1.89c0,1.12,0,1.44,.54,1.44h.42v.38h-3.82v-.38Zm4.24-2.93c1.02,0,1.02-2.41,1.02-3.05s0-2.67-1.01-2.67c-1.25,0-1.36,1.82-1.36,2.72s.01,3,1.35,3Z"/><path class="e" d="M190.25,26.17h.45c.4,0,.53-.17,.53-.9v-7.28c0-.73-.13-.9-.53-.9h-.45v-.38h2.88v8.56c0,.73,.13,.9,.53,.9h.45v.38h-3.86v-.38Z"/><path class="e" d="M194.43,26.17h.45c.4,0,.53-.17,.53-.9v-4.06c0-.73-.13-.9-.53-.9h-.45v-.38h1.39c.53,0,1.15-.07,1.56-.21-.09,1.04-.07,2.06-.07,3.08v2.47c0,.73,.13,.9,.53,.9h.45v.38h-3.86v-.38Zm1.93-9.46c.61,0,1.11,.5,1.11,1.11s-.5,1.11-1.11,1.11-1.11-.5-1.11-1.11,.5-1.11,1.11-1.11Z"/><path class="e" d="M201.04,23.26v.33c0,1.32,.12,2.71,1.62,2.71,1.15,0,1.82-.98,1.85-2.02h.58c-.17,1.63-1.2,2.49-2.85,2.49-2.1,0-3.26-1.47-3.26-3.53s1.16-3.51,3.26-3.51c2.21,0,2.99,1.49,2.99,3.54h-4.19Zm2.13-.38c0-1.43,0-2.7-.98-2.7-1.1,0-1.15,1.4-1.15,2.7h2.13Z"/><path class="e" d="M210.87,25.58h-.03c-.3,.85-1.06,1.18-1.98,1.18-1.85,0-2.54-1.9-2.54-3.5,0-1.69,.63-3.54,2.56-3.54,.85,0,1.47,.34,1.88,1.08h.03v-2.83c0-.65-.03-.88-.53-.88h-.41v-.38h2.84v8.55c0,.79,.19,.91,.53,.91h.42v.38h-2.77v-.97Zm-1.47,.52c1.33,0,1.35-2.13,1.35-3s-.11-2.72-1.36-2.72c-1.01,0-1.01,2.03-1.01,2.67s0,3.05,1.02,3.05Z"/><path class="e" d="M218.6,24.04h.5c0,1.31,1.18,2.26,2.54,2.26,1.11,0,1.84-.65,1.84-1.69,0-2.46-4.96-1.35-4.96-4.84,0-1.86,1.41-2.84,3.13-2.84,.75,0,1.55,.34,1.98,.34,.24,0,.36-.13,.38-.26h.42v2.38h-.5c-.08-1.19-1-1.99-2.22-1.99-.9,0-1.85,.45-1.85,1.48,0,2.28,5.04,1.1,5.04,4.91,0,1.88-1.53,2.97-3.26,2.97-.91,0-1.74-.34-2.26-.34-.24,0-.32,.11-.36,.27h-.42v-2.64Z"/><path class="e" d="M232.01,24.33c-.18,1.64-1.1,2.43-2.74,2.43-2.14,0-3.12-1.61-3.12-3.6,0-2.48,1.78-3.45,3.37-3.45,1.83,0,2.37,.99,2.37,1.45,0,.64-.33,1.07-1.02,1.07-.54,0-.88-.38-.88-.91,0-.38,.18-.45,.18-.61,0-.29-.45-.54-.75-.54-1.14,0-1.2,1.6-1.2,3.14,0,1.04-.01,2.97,1.45,2.97,1.2,0,1.66-.88,1.75-1.97h.58Z"/><path class="e" d="M232.65,26.17h.45c.4,0,.53-.17,.53-.9v-4.06c0-.73-.13-.9-.53-.9h-.45v-.38h1.39c.53,0,1.15-.07,1.56-.21-.09,1.04-.07,2.06-.07,3.08v2.47c0,.73,.13,.9,.53,.9h.45v.38h-3.86v-.38Zm1.93-9.46c.61,0,1.11,.5,1.11,1.11s-.5,1.11-1.11,1.11-1.11-.5-1.11-1.11,.5-1.11,1.11-1.11Z"/><path class="e" d="M239.26,23.26v.33c0,1.32,.12,2.71,1.63,2.71,1.15,0,1.82-.98,1.85-2.02h.58c-.17,1.63-1.2,2.49-2.85,2.49-2.1,0-3.26-1.47-3.26-3.53s1.16-3.51,3.26-3.51c2.21,0,2.99,1.49,2.99,3.54h-4.19Zm2.13-.38c0-1.43,0-2.7-.98-2.7-1.1,0-1.15,1.4-1.15,2.7h2.13Z"/><path class="e" d="M244.27,26.17h.45c.4,0,.53-.17,.53-.9v-4.06c0-.73-.13-.9-.53-.9h-.45v-.38h1.39c.49,0,.96-.09,1.41-.21v1.17h.03c.53-.75,1.16-1.17,2.14-1.17,1.3,0,1.93,.78,1.93,1.88v3.67c0,.73,.13,.9,.53,.9h.29v.38h-3.54v-.38h.29c.4,0,.53-.17,.53-.9v-3.33c0-.65,0-1.4-.85-1.4-1.27,0-1.27,1.45-1.27,2.27v2.46c0,.73,.13,.9,.53,.9h.29v.38h-3.7v-.38Z"/><path class="e" d="M258.52,24.33c-.19,1.64-1.1,2.43-2.74,2.43-2.14,0-3.12-1.61-3.12-3.6,0-2.48,1.79-3.45,3.37-3.45,1.82,0,2.36,.99,2.36,1.45,0,.64-.33,1.07-1.02,1.07-.54,0-.88-.38-.88-.91,0-.38,.18-.45,.18-.61,0-.29-.45-.54-.75-.54-1.14,0-1.2,1.6-1.2,3.14,0,1.04-.01,2.97,1.45,2.97,1.2,0,1.66-.88,1.76-1.97h.58Z"/><path class="e" d="M261.49,23.26v.33c0,1.32,.12,2.71,1.63,2.71,1.15,0,1.82-.98,1.85-2.02h.58c-.17,1.63-1.2,2.49-2.85,2.49-2.1,0-3.26-1.47-3.26-3.53s1.16-3.51,3.26-3.51c2.21,0,2.99,1.49,2.99,3.54h-4.19Zm2.13-.38c0-1.43,0-2.7-.98-2.7-1.1,0-1.15,1.4-1.15,2.7h2.13Z"/><path class="e" d="M266.77,24.38h.42c.26,1.12,.88,1.92,2.13,1.92,.67,0,1.32-.4,1.32-1.07,0-.85-.66-1.03-1.93-1.32-.98-.23-1.94-.55-1.94-1.92,0-1.57,1.15-2.27,2.6-2.27,.59,0,1.02,.21,1.45,.21,.36,0,.56-.11,.71-.21h.08v2.13h-.42c-.13-.87-.85-1.66-1.77-1.66-.65,0-1.31,.24-1.31,1.04,0,.67,.34,.77,1.88,1.12,1.18,.26,2.08,.63,2.08,2.17s-1.31,2.25-2.7,2.25c-.62,0-1.29-.21-1.86-.21-.26,0-.53,.12-.66,.21h-.08v-2.38Z"/></g></g><line class="d" x1="101.54" x2="101.54" y2="29.26"/></g></g></svg>